<svg 
 xmlns="http://www.w3.org/2000/svg"
 xmlns:xlink="http://www.w3.org/1999/xlink"
 width="45px" height="45px">
<path fill-rule="evenodd"  fill="rgb(16, 16, 18)"
 d="M23.270,31.823 L23.270,29.036 L21.009,29.036 L21.009,31.878 C18.479,32.391 16.483,34.360 15.921,36.870 L0.975,36.870 L0.975,39.132 L15.812,39.132 C16.221,42.370 18.974,44.873 22.322,44.873 C25.666,44.873 28.420,42.367 28.825,39.131 L44.023,39.131 L44.023,36.871 L28.719,36.871 C28.131,34.245 25.968,32.217 23.270,31.823 ZM22.322,42.613 C19.945,42.608 18.023,40.683 18.018,38.309 C18.023,35.936 19.945,34.014 22.322,34.009 C24.694,34.014 26.617,35.936 26.622,38.309 C26.617,40.683 24.694,42.608 22.322,42.613 ZM40.641,0.127 L4.358,0.127 C2.377,0.132 0.772,1.736 0.769,3.719 L0.769,23.912 C0.772,25.893 2.377,27.498 4.358,27.503 L40.641,27.503 C42.622,27.498 44.226,25.893 44.231,23.912 L44.231,3.719 C44.226,1.736 42.622,0.132 40.641,0.127 ZM41.972,23.912 C41.968,24.634 41.365,25.239 40.641,25.240 L4.358,25.240 C3.634,25.239 3.030,24.634 3.028,23.912 L3.030,3.719 C3.030,2.995 3.634,2.391 4.358,2.388 L40.641,2.391 C41.365,2.391 41.968,2.995 41.972,3.719 L41.968,23.912 L41.972,23.912 Z"/>
</svg>