<svg 
 xmlns="http://www.w3.org/2000/svg"
 xmlns:xlink="http://www.w3.org/1999/xlink"
 width="53px" height="47px">
<path fill-rule="evenodd"  fill="rgb(16, 16, 18)"
 d="M48.667,15.044 L37.039,15.041 C36.862,12.011 36.000,9.271 34.631,7.158 C33.194,4.941 31.102,3.381 28.666,3.203 L28.666,3.171 L28.226,3.171 C28.224,3.171 28.221,3.171 28.221,3.171 C28.218,3.171 28.215,3.171 28.213,3.171 L16.801,3.171 C16.510,1.589 15.136,0.394 13.473,0.390 L10.363,0.390 C8.490,0.394 6.975,1.910 6.971,3.782 L6.971,9.484 L2.071,9.484 C1.449,9.484 0.940,9.992 0.940,10.615 C0.940,11.237 1.449,11.746 2.071,11.746 L6.971,11.746 L6.971,21.167 L2.071,21.167 C1.449,21.167 0.940,21.675 0.940,22.298 L0.940,22.298 C0.940,22.920 1.449,23.431 2.071,23.431 L6.971,23.431 L6.971,27.950 C6.975,29.825 8.490,31.337 10.363,31.342 L13.473,31.342 C14.913,31.337 16.132,30.440 16.624,29.177 L28.206,29.177 C28.211,29.177 28.213,29.177 28.221,29.177 C28.224,29.177 28.229,29.177 28.234,29.177 L28.666,29.177 L28.666,29.143 C31.102,28.964 33.194,27.406 34.631,25.184 C36.000,23.077 36.862,20.334 37.039,17.305 L48.667,17.305 C49.281,17.305 49.796,17.822 49.796,18.435 L49.796,37.846 C49.796,38.461 49.281,38.974 48.667,38.978 L23.978,38.978 C22.104,38.982 20.589,40.495 20.585,42.368 L20.585,46.609 L22.848,46.609 L22.845,42.368 C22.848,41.754 23.363,41.239 23.978,41.239 L48.667,41.239 C50.539,41.235 52.053,39.719 52.058,37.846 L52.060,18.435 C52.053,16.561 50.539,15.045 48.667,15.044 ZM14.602,27.950 C14.602,28.565 14.086,29.080 13.473,29.082 L10.363,29.082 C9.750,29.080 9.234,28.565 9.231,27.950 L9.231,3.782 C9.234,3.168 9.750,2.653 10.363,2.649 L13.473,2.649 C14.086,2.653 14.602,3.168 14.602,3.782 L14.602,27.950 ZM16.911,26.914 L16.911,5.432 L23.204,5.432 L26.405,5.432 L26.405,5.856 L26.405,26.491 L26.405,26.914 L23.204,26.914 L16.911,26.914 ZM32.735,23.952 C31.579,25.716 30.144,26.716 28.666,26.882 L28.666,5.464 C30.144,5.631 31.579,6.630 32.735,8.393 C33.991,10.321 34.817,13.092 34.814,16.176 C34.817,19.253 33.991,22.027 32.735,23.952 Z"/>
</svg>