<svg 
 xmlns="http://www.w3.org/2000/svg"
 xmlns:xlink="http://www.w3.org/1999/xlink"
 width="21px" height="19px">
<path fill-rule="evenodd"  fill="rgb(0, 199, 252)"
 d="M12.522,17.742 L20.680,3.611 C21.510,2.171 20.622,0.711 19.007,0.711 L2.689,0.711 C1.504,0.711 0.683,1.429 0.683,2.459 C0.683,2.838 0.790,3.224 1.014,3.607 L9.174,17.746 C9.578,18.440 10.191,18.839 10.851,18.839 C11.511,18.839 12.121,18.440 12.522,17.742 L12.522,17.742 ZM10.625,16.904 L2.465,2.773 C2.362,2.594 2.354,2.486 2.354,2.459 L2.344,2.454 C2.365,2.435 2.465,2.382 2.689,2.382 L19.007,2.382 C19.229,2.382 19.328,2.435 19.340,2.463 C19.340,2.486 19.332,2.594 19.229,2.777 L11.069,16.904 C10.963,17.100 10.862,17.156 10.857,17.167 C10.830,17.156 10.733,17.100 10.625,16.904 L10.625,16.904 Z"/>
</svg>